<svg width="26" height="26" viewBox="0 0 26 26" fill="none" xmlns="http://www.w3.org/2000/svg">
<path opacity="0.34" d="M13 16.25C14.7949 16.25 16.25 14.7949 16.25 13C16.25 11.2051 14.7949 9.75 13 9.75C11.2051 9.75 9.75 11.2051 9.75 13C9.75 14.7949 11.2051 16.25 13 16.25Z" stroke="#999EA6" stroke-width="1.5" stroke-miterlimit="10" stroke-linecap="round" stroke-linejoin="round"/>
<path d="M2.16669 13.9533V12.0467C2.16669 10.92 3.08752 9.98835 4.22502 9.98835C6.18585 9.98835 6.98752 8.60168 6.00169 6.90085C5.43835 5.92585 5.77419 4.65835 6.76002 4.09501L8.63419 3.02251C9.49002 2.51335 10.595 2.81668 11.1042 3.67251L11.2234 3.87835C12.1984 5.57918 13.8017 5.57918 14.7875 3.87835L14.9067 3.67251C15.4159 2.81668 16.5209 2.51335 17.3767 3.02251L19.2509 4.09501C20.2367 4.65835 20.5725 5.92585 20.0092 6.90085C19.0234 8.60168 19.825 9.98835 21.7859 9.98835C22.9125 9.98835 23.8442 10.9092 23.8442 12.0467V13.9533C23.8442 15.08 22.9234 16.0117 21.7859 16.0117C19.825 16.0117 19.0234 17.3983 20.0092 19.0992C20.5725 20.085 20.2367 21.3417 19.2509 21.905L17.3767 22.9775C16.5209 23.4867 15.4159 23.1833 14.9067 22.3275L14.7875 22.1217C13.8125 20.4208 12.2092 20.4208 11.2234 22.1217L11.1042 22.3275C10.595 23.1833 9.49002 23.4867 8.63419 22.9775L6.76002 21.905C5.77419 21.3417 5.43835 20.0742 6.00169 19.0992C6.98752 17.3983 6.18585 16.0117 4.22502 16.0117C3.08752 16.0117 2.16669 15.08 2.16669 13.9533Z" stroke="#999EA6" stroke-width="1.5" stroke-miterlimit="10" stroke-linecap="round" stroke-linejoin="round"/>
</svg>
