<svg width="26" height="26" viewBox="0 0 26 26" fill="none" xmlns="http://www.w3.org/2000/svg">
<path opacity="0.4" d="M2.16699 13.9532V12.0466C2.16699 10.9199 3.08783 9.98822 4.22533 9.98822C6.18616 9.98822 6.98783 8.60156 6.00199 6.90072C5.43866 5.92572 5.77449 4.65822 6.76033 4.09489L8.63449 3.02239C9.49033 2.51322 10.5953 2.81656 11.1045 3.67239L11.2237 3.87822C12.1987 5.57906 13.802 5.57906 14.7878 3.87822L14.907 3.67239C15.4162 2.81656 16.5212 2.51322 17.377 3.02239L19.2512 4.09489C20.237 4.65822 20.5728 5.92572 20.0095 6.90072C19.0237 8.60156 19.8253 9.98822 21.7862 9.98822C22.9128 9.98822 23.8445 10.9091 23.8445 12.0466V13.9532C23.8445 15.0799 22.9237 16.0116 21.7862 16.0116C19.8253 16.0116 19.0237 17.3982 20.0095 19.0991C20.5728 20.0849 20.237 21.3416 19.2512 21.9049L17.377 22.9774C16.5212 23.4866 15.4162 23.1832 14.907 22.3274L14.7878 22.1216C13.8128 20.4207 12.2095 20.4207 11.2237 22.1216L11.1045 22.3274C10.5953 23.1832 9.49033 23.4866 8.63449 22.9774L6.76033 21.9049C5.77449 21.3416 5.43866 20.0741 6.00199 19.0991C6.98783 17.3982 6.18616 16.0116 4.22533 16.0116C3.08783 16.0116 2.16699 15.0799 2.16699 13.9532Z" fill="white"/>
<path d="M13.0003 16.5212C14.9448 16.5212 16.5212 14.9448 16.5212 13.0003C16.5212 11.0558 14.9448 9.47949 13.0003 9.47949C11.0558 9.47949 9.47949 11.0558 9.47949 13.0003C9.47949 14.9448 11.0558 16.5212 13.0003 16.5212Z" fill="white"/>
</svg>
