<svg width="22" height="22" viewBox="0 0 22 22" fill="none" xmlns="http://www.w3.org/2000/svg">
<path d="M14.6198 11.8152V15.6152C14.6198 18.7818 13.3531 20.0485 10.1865 20.0485H6.38646C3.21979 20.0485 1.95312 18.7818 1.95312 15.6152V11.8152C1.95312 8.6485 3.21979 7.38184 6.38646 7.38184H10.1865C13.3531 7.38184 14.6198 8.6485 14.6198 11.8152Z" stroke="#01AA85" stroke-width="1.5" stroke-linecap="round" stroke-linejoin="round"/>
<path d="M20.0485 6.38646V10.1865C20.0485 13.3531 18.7818 14.6198 15.6152 14.6198H14.6199V11.815C14.6199 8.64836 13.3533 7.3817 10.1866 7.3817H7.38184V6.38646C7.38184 3.21979 8.6485 1.95312 11.8152 1.95312H15.6152C18.7818 1.95312 20.0485 3.21979 20.0485 6.38646Z" stroke="#01AA85" stroke-width="1.5" stroke-linecap="round" stroke-linejoin="round"/>
</svg>
