<svg width="26" height="26" viewBox="0 0 26 26" fill="none" xmlns="http://www.w3.org/2000/svg">
<path d="M22.7071 19.3266L20.9413 19.9225C20.4538 20.085 20.0638 20.4641 19.9013 20.9625L19.3055 22.7283C18.7963 24.2558 16.6513 24.2233 16.1746 22.6958L14.1705 16.25C13.7805 14.9716 14.9613 13.7799 16.2288 14.1808L22.6855 16.185C24.2021 16.6616 24.2238 18.8174 22.7071 19.3266Z" fill="white"/>
<path opacity="0.4" d="M12.4587 22.7501C18.1426 22.7501 22.7503 18.1423 22.7503 12.4584C22.7503 6.77448 18.1426 2.16675 12.4587 2.16675C6.77473 2.16675 2.16699 6.77448 2.16699 12.4584C2.16699 18.1423 6.77473 22.7501 12.4587 22.7501Z" fill="white"/>
</svg>
