<svg width="26" height="26" viewBox="0 0 26 26" fill="none" xmlns="http://www.w3.org/2000/svg">
<path d="M17.7343 24.6679C17.7235 24.6679 17.7235 24.6679 17.7126 24.6679C16.6185 24.657 15.7085 23.9854 15.3835 22.9345L13.3793 16.4887C13.1085 15.6004 13.336 14.647 13.9968 14.0079C14.6468 13.3687 15.5893 13.1304 16.456 13.4012L22.9126 15.4054C23.9526 15.7304 24.6351 16.6404 24.646 17.7345C24.6568 18.8179 23.996 19.7387 22.956 20.0854L21.1901 20.6812C20.941 20.7679 20.746 20.952 20.6701 21.2012L20.0635 22.9779C19.7276 24.007 18.8177 24.6679 17.7343 24.6679ZM15.7193 14.9179C15.4268 14.9179 15.2318 15.0804 15.1452 15.1562C14.9177 15.3837 14.8418 15.6979 14.9393 16.012L16.9435 22.4579C17.1168 23.0104 17.5935 23.032 17.7451 23.0429C17.8968 23.0429 18.3626 22.9995 18.536 22.4687L19.1426 20.692C19.381 19.9662 19.966 19.392 20.6918 19.1429L22.4577 18.547C22.9993 18.3737 23.0318 17.897 23.0318 17.7562C23.0318 17.6154 22.9885 17.1387 22.4468 16.9654L15.9901 14.9612C15.8818 14.9287 15.7951 14.9179 15.7193 14.9179Z" fill="#7F8384"/>
<path d="M12.9993 24.6462C6.57518 24.6462 1.35352 19.4245 1.35352 13.0003C1.35352 6.57616 6.57518 1.35449 12.9993 1.35449C19.4235 1.35449 24.6452 6.57616 24.6452 13.0003C24.6452 13.4445 24.2768 13.8128 23.8327 13.8128C23.3885 13.8128 23.0202 13.4445 23.0202 13.0003C23.0202 7.47533 18.5243 2.97949 12.9993 2.97949C7.47435 2.97949 2.97852 7.47533 2.97852 13.0003C2.97852 18.5253 7.47435 23.0212 12.9993 23.0212C13.4435 23.0212 13.8118 23.3895 13.8118 23.8337C13.8118 24.2778 13.4435 24.6462 12.9993 24.6462Z" fill="#7F8384"/>
</svg>
