<svg width="64" height="64" viewBox="0 0 64 64" fill="none" xmlns="http://www.w3.org/2000/svg">
<path d="M28.3873 2.26551C30.6703 1.16609 33.3297 1.16609 35.6127 2.26551L52.9949 10.6364C55.2779 11.7358 56.936 13.815 57.4998 16.2853L61.7929 35.0945C62.3567 37.5648 61.765 40.1575 60.1851 42.1386L48.1562 57.2224C46.5763 59.2035 44.1803 60.3573 41.6464 60.3573H22.3536C19.8197 60.3573 17.4237 59.2035 15.8438 57.2224L3.81491 42.1386C2.23505 40.1575 1.64328 37.5648 2.20713 35.0945L6.50019 16.2853C7.06403 13.815 8.72213 11.7358 11.0051 10.6364L28.3873 2.26551Z" stroke="#01AA85" stroke-width="0.947368"/>
<path d="M28.1819 6.89123C30.5948 5.72926 33.4054 5.72926 35.8183 6.89123L49.2502 13.3597C51.6631 14.5217 53.4155 16.7191 54.0114 19.3301L57.3288 33.8646C57.9248 36.4755 57.2993 39.2157 55.6296 41.3095L46.3344 52.9653C44.6646 55.0591 42.1323 56.2786 39.4543 56.2786H24.5459C21.8679 56.2786 19.3356 55.0591 17.6658 52.9653L8.37062 41.3095C6.70088 39.2157 6.07545 36.4755 6.67137 33.8646L9.98879 19.3301C10.5847 16.7191 12.3371 14.5217 14.75 13.3597L28.1819 6.89123Z" fill="#E6F6F3"/>
<path d="M37.6064 40.3262H26.3924C25.8913 40.3262 25.3306 39.9326 25.1636 39.4554L20.2247 25.6406C19.5208 23.6603 20.344 23.0519 22.038 24.2687L26.6906 27.5971C27.4661 28.134 28.3489 27.8596 28.6829 26.9887L30.7826 21.3936C31.4506 19.6041 32.5601 19.6041 33.2282 21.3936L35.3278 26.9887C35.6619 27.8596 36.5447 28.134 37.3082 27.5971L41.6745 24.4834C43.5356 23.1473 44.4303 23.8273 43.6668 25.9866L38.8471 39.4792C38.6682 39.9326 38.1075 40.3262 37.6064 40.3262Z" stroke="#01AA85" stroke-width="1.8" stroke-linecap="round" stroke-linejoin="round"/>
<path d="M25.4385 43.9292H38.5613" stroke="#01AA85" stroke-width="1.8" stroke-linecap="round" stroke-linejoin="round"/>
<path d="M29.0166 34.3853H34.9815" stroke="#01AA85" stroke-width="1.8" stroke-linecap="round" stroke-linejoin="round"/>
</svg>
