<svg width="40" height="40" viewBox="0 0 40 40" fill="none" xmlns="http://www.w3.org/2000/svg">
<rect width="40" height="40" rx="4" fill="#01AA85" fill-opacity="0.08"/>
<path d="M27.5 14.9833C24.725 14.7083 21.9333 14.5667 19.15 14.5667C17.5 14.5667 15.85 14.65 14.2 14.8167L12.5 14.9833" stroke="#01AA85" stroke-width="1.5" stroke-linecap="round" stroke-linejoin="round"/>
<path d="M17.083 14.1417L17.2663 13.0501C17.3997 12.2584 17.4997 11.6667 18.908 11.6667H21.0913C22.4997 11.6667 22.608 12.2917 22.733 13.0584L22.9163 14.1417" stroke="#01AA85" stroke-width="1.5" stroke-linecap="round" stroke-linejoin="round"/>
<path d="M25.7087 17.6167L25.167 26.0084C25.0753 27.3167 25.0003 28.3334 22.6753 28.3334H17.3253C15.0003 28.3334 14.9253 27.3167 14.8337 26.0084L14.292 17.6167" stroke="#01AA85" stroke-width="1.5" stroke-linecap="round" stroke-linejoin="round"/>
<path d="M18.6084 23.75H21.3834" stroke="#01AA85" stroke-width="1.5" stroke-linecap="round" stroke-linejoin="round"/>
<path d="M17.917 20.4167H22.0837" stroke="#01AA85" stroke-width="1.5" stroke-linecap="round" stroke-linejoin="round"/>
</svg>
