<svg width="24" height="24" viewBox="0 0 24 24" fill="none" xmlns="http://www.w3.org/2000/svg">
<g id="vuesax/bulk/dislike">
<g id="dislike">
<path id="Vector" opacity="0.4" d="M2.35002 13.9603C2.74002 14.5203 3.43002 14.8403 4.22002 14.8403H8.32002C8.59002 14.8403 8.84002 14.9503 9.01002 15.1503C9.19002 15.3503 9.26002 15.6303 9.22002 15.9203L8.71002 19.2003C8.49002 20.1803 9.14002 21.2803 10.12 21.6103C11.03 21.9503 12.1 21.4903 12.53 20.8403L16.74 14.5703L16.86 14.3703V5.53027L16.71 5.38027L13.54 2.93027C13.12 2.51027 12.17 2.28027 11.5 2.28027H7.60002C6.26002 2.28027 4.91002 3.29027 4.61002 4.52027L2.15002 12.0103C1.90002 12.7203 1.97002 13.4203 2.35002 13.9603Z" fill="white"/>
<path id="Vector_2" d="M18.7904 17.6104H19.8204C21.3704 17.6104 22.0004 17.0104 22.0004 15.5304V5.48039C22.0004 4.00039 21.3704 3.40039 19.8204 3.40039H18.7904C17.2404 3.40039 16.6104 4.00039 16.6104 5.48039V15.5404C16.6104 17.0104 17.2404 17.6104 18.7904 17.6104Z" fill="white"/>
</g>
</g>
</svg>
