<svg width="15" height="15" viewBox="0 0 15 15" fill="none" xmlns="http://www.w3.org/2000/svg">
<path d="M5.62518 11.875C5.62518 12.4 5.70643 12.9125 5.85643 13.3875C3.45643 12.5563 1.64393 10.35 1.45643 7.76876C1.26893 5.02501 2.85018 2.46251 5.40643 1.38751C6.06893 1.11251 6.40643 1.31251 6.55018 1.45626C6.68768 1.59376 6.88143 1.92501 6.60643 2.55626C6.32518 3.20626 6.18768 3.89376 6.18768 4.60626C6.19393 5.88126 6.69393 7.06251 7.50643 7.96876C6.36268 8.88126 5.62518 10.2938 5.62518 11.875Z" fill="white"/>
<path opacity="0.4" d="M13.2562 11.075C12.0187 12.7562 10.0562 13.7437 7.9625 13.7437C7.8625 13.7437 7.7625 13.7375 7.6625 13.7312C7.0375 13.7062 6.43125 13.5875 5.85625 13.3875C5.70625 12.9125 5.625 12.4 5.625 11.875C5.625 10.2938 6.3625 8.88125 7.50625 7.96875C8.425 9 9.74375 9.66875 11.2 9.73125C11.5938 9.75 11.9875 9.71875 12.375 9.65C13.075 9.525 13.3563 9.7875 13.4563 9.95625C13.5625 10.125 13.675 10.4937 13.2562 11.075Z" fill="white"/>
</svg>
