<svg width="26" height="26" viewBox="0 0 26 26" fill="none" xmlns="http://www.w3.org/2000/svg">
<path opacity="0.4" d="M9.75 7.80033V18.1895C9.75 21.667 11.9167 23.8337 15.3833 23.8337H18.1892C21.6558 23.8337 23.8225 21.667 23.8225 18.2003V7.80033C23.8333 4.33366 21.6667 2.16699 18.2 2.16699H15.3833C11.9167 2.16699 9.75 4.33366 9.75 7.80033Z" fill="white"/>
<path d="M6.03374 8.79648L2.40457 12.4257C2.0904 12.7398 2.0904 13.2598 2.40457 13.574L6.03374 17.2032C6.3479 17.5173 6.8679 17.5173 7.18207 17.2032C7.49624 16.889 7.49624 16.369 7.18207 16.0548L4.93957 13.8123H16.5204C16.9646 13.8123 17.3329 13.444 17.3329 12.9998C17.3329 12.5557 16.9646 12.1873 16.5204 12.1873H4.93957L7.18207 9.94482C7.34457 9.78232 7.4204 9.57648 7.4204 9.37065C7.4204 9.16482 7.34457 8.94815 7.18207 8.79648C6.8679 8.47148 6.35874 8.47148 6.03374 8.79648Z" fill="white"/>
</svg>
