<svg width="15" height="15" viewBox="0 0 15 15" fill="none" xmlns="http://www.w3.org/2000/svg">
<path d="M5.625 11.875C5.625 12.4 5.70625 12.9125 5.85625 13.3875C3.45625 12.5562 1.64375 10.35 1.45625 7.76873C1.26875 5.02498 2.85 2.46248 5.40625 1.38748C6.06875 1.11248 6.40625 1.31248 6.55 1.45623C6.6875 1.59373 6.88125 1.92498 6.60625 2.55623C6.325 3.20623 6.1875 3.89373 6.1875 4.60623C6.19375 5.88123 6.69375 7.06248 7.50625 7.96873C6.3625 8.88123 5.625 10.2937 5.625 11.875Z" fill="white"/>
<path opacity="0.4" d="M13.2562 11.075C12.0187 12.7562 10.0562 13.7437 7.9625 13.7437C7.8625 13.7437 7.7625 13.7375 7.6625 13.7312C7.0375 13.7062 6.43125 13.5875 5.85625 13.3875C5.70625 12.9125 5.625 12.4 5.625 11.875C5.625 10.2938 6.3625 8.88125 7.50625 7.96875C8.425 9 9.74375 9.66875 11.2 9.73125C11.5938 9.75 11.9875 9.71875 12.375 9.65C13.075 9.525 13.3563 9.7875 13.4563 9.95625C13.5625 10.125 13.675 10.4937 13.2562 11.075Z" fill="white"/>
</svg>
