<svg width="24" height="24" viewBox="0 0 24 24" fill="none" xmlns="http://www.w3.org/2000/svg">
<path d="M16.42 7.95012C18.86 10.3901 18.86 14.3501 16.42 16.7901C13.98 19.2301 10.02 19.2301 7.58 16.7901C5.14 14.3501 5.14 10.3901 7.58 7.95012C10.02 5.51012 13.98 5.51012 16.42 7.95012Z" fill="white"/>
<path opacity="0.4" d="M8.25003 22.3899C8.16003 22.3899 8.06004 22.3699 7.97004 22.3399C5.72004 21.4399 3.90003 19.8499 2.68003 17.7499C1.50003 15.6999 1.03003 13.3799 1.34003 11.0199C1.39003 10.6099 1.78003 10.3199 2.18003 10.3699C2.59003 10.4199 2.88002 10.7999 2.83002 11.2099C2.57002 13.2299 2.97005 15.2299 3.98005 16.9899C5.02005 18.7899 6.59002 20.1599 8.52002 20.9299C8.90002 21.0899 9.09004 21.5198 8.94004 21.9098C8.83004 22.2098 8.54003 22.3899 8.25003 22.3899Z" fill="white"/>
<path opacity="0.4" d="M5.84961 5.23035C5.62961 5.23035 5.40961 5.13037 5.25961 4.94037C4.99961 4.61037 5.05962 4.14038 5.38962 3.89038C7.29962 2.40038 9.57961 1.61035 11.9996 1.61035C14.3596 1.61035 16.6096 2.37036 18.4996 3.81036C18.8296 4.06036 18.8896 4.53035 18.6396 4.86035C18.3896 5.19035 17.9196 5.25037 17.5896 5.00037C15.9696 3.76037 14.0396 3.11035 11.9996 3.11035C9.91961 3.11035 7.9496 3.79037 6.3096 5.07037C6.1696 5.18037 6.00961 5.23035 5.84961 5.23035Z" fill="white"/>
<path opacity="0.4" d="M15.7497 22.3896C15.4497 22.3896 15.1697 22.2096 15.0497 21.9196C14.8997 21.5396 15.0797 21.0996 15.4697 20.9396C17.3997 20.1596 18.9697 18.7996 20.0097 16.9996C21.0297 15.2396 21.4297 13.2396 21.1597 11.2196C21.1097 10.8096 21.3997 10.4296 21.8097 10.3796C22.2097 10.3296 22.5997 10.6197 22.6497 11.0297C22.9497 13.3797 22.4897 15.7096 21.3097 17.7596C20.0997 19.8596 18.2697 21.4396 16.0197 22.3496C15.9397 22.3696 15.8497 22.3896 15.7497 22.3896Z" fill="white"/>
</svg>
