<svg width="15" height="15" viewBox="0 0 15 15" fill="none" xmlns="http://www.w3.org/2000/svg">
<path d="M7.5 11.875C9.91625 11.875 11.875 9.91625 11.875 7.5C11.875 5.08375 9.91625 3.125 7.5 3.125C5.08375 3.125 3.125 5.08375 3.125 7.5C3.125 9.91625 5.08375 11.875 7.5 11.875Z" fill="white"/>
<path opacity="0.4" d="M7.5 14.35C7.15625 14.35 6.875 14.0938 6.875 13.75V13.7C6.875 13.3563 7.15625 13.075 7.5 13.075C7.84375 13.075 8.125 13.3563 8.125 13.7C8.125 14.0438 7.84375 14.35 7.5 14.35ZM11.9625 12.5875C11.8 12.5875 11.6438 12.525 11.5188 12.4063L11.4375 12.325C11.1937 12.0812 11.1937 11.6875 11.4375 11.4437C11.6812 11.2 12.075 11.2 12.3187 11.4437L12.4 11.525C12.6438 11.7688 12.6438 12.1625 12.4 12.4063C12.2813 12.525 12.125 12.5875 11.9625 12.5875ZM3.0375 12.5875C2.875 12.5875 2.71875 12.525 2.59375 12.4063C2.35 12.1625 2.35 11.7688 2.59375 11.525L2.675 11.4437C2.91875 11.2 3.3125 11.2 3.55625 11.4437C3.8 11.6875 3.8 12.0812 3.55625 12.325L3.475 12.4063C3.35625 12.525 3.19375 12.5875 3.0375 12.5875ZM13.75 8.125H13.7C13.3563 8.125 13.075 7.84375 13.075 7.5C13.075 7.15625 13.3563 6.875 13.7 6.875C14.0438 6.875 14.35 7.15625 14.35 7.5C14.35 7.84375 14.0938 8.125 13.75 8.125ZM1.3 8.125H1.25C0.90625 8.125 0.625 7.84375 0.625 7.5C0.625 7.15625 0.90625 6.875 1.25 6.875C1.59375 6.875 1.9 7.15625 1.9 7.5C1.9 7.84375 1.64375 8.125 1.3 8.125ZM11.8813 3.74375C11.7188 3.74375 11.5625 3.68125 11.4375 3.5625C11.1937 3.31875 11.1937 2.925 11.4375 2.68125L11.5188 2.6C11.7625 2.35625 12.1563 2.35625 12.4 2.6C12.6438 2.84375 12.6438 3.2375 12.4 3.48125L12.3187 3.5625C12.2 3.68125 12.0438 3.74375 11.8813 3.74375ZM3.11875 3.74375C2.95625 3.74375 2.8 3.68125 2.675 3.5625L2.59375 3.475C2.35 3.23125 2.35 2.8375 2.59375 2.59375C2.8375 2.35 3.23125 2.35 3.475 2.59375L3.55625 2.675C3.8 2.91875 3.8 3.3125 3.55625 3.55625C3.4375 3.68125 3.275 3.74375 3.11875 3.74375ZM7.5 1.9C7.15625 1.9 6.875 1.64375 6.875 1.3V1.25C6.875 0.90625 7.15625 0.625 7.5 0.625C7.84375 0.625 8.125 0.90625 8.125 1.25C8.125 1.59375 7.84375 1.9 7.5 1.9Z" fill="white"/>
</svg>
