<svg width="62" height="62" viewBox="0 0 62 62" fill="none" xmlns="http://www.w3.org/2000/svg">
<rect width="62" height="62" rx="13" fill="#3164BD"/>
<path d="M26.9767 29.3992C26.835 29.385 26.665 29.385 26.5092 29.3992C23.1375 29.2858 20.46 26.5233 20.46 23.1233C20.46 19.6525 23.265 16.8333 26.75 16.8333C30.2208 16.8333 33.04 19.6525 33.04 23.1233C33.0258 26.5233 30.3483 29.2858 26.9767 29.3992Z" stroke="white" stroke-width="2" stroke-linecap="round" stroke-linejoin="round"/>
<path d="M37.2475 19.6667C39.9958 19.6667 42.2058 21.8908 42.2058 24.625C42.2058 27.3025 40.0808 29.4842 37.4317 29.5833C37.3183 29.5692 37.1908 29.5692 37.0633 29.5833" stroke="white" stroke-width="2" stroke-linecap="round" stroke-linejoin="round"/>
<path d="M19.8933 34.6267C16.465 36.9217 16.465 40.6617 19.8933 42.9425C23.7892 45.5492 30.1783 45.5492 34.0742 42.9425C37.5025 40.6475 37.5025 36.9075 34.0742 34.6267C30.1925 32.0342 23.8033 32.0342 19.8933 34.6267Z" stroke="white" stroke-width="2" stroke-linecap="round" stroke-linejoin="round"/>
<path d="M39.9817 42.3333C41.0017 42.1208 41.965 41.71 42.7583 41.1008C44.9683 39.4433 44.9683 36.7092 42.7583 35.0517C41.9792 34.4567 41.03 34.06 40.0242 33.8333" stroke="white" stroke-width="2" stroke-linecap="round" stroke-linejoin="round"/>
</svg>
