<svg width="62" height="62" viewBox="0 0 62 62" fill="none" xmlns="http://www.w3.org/2000/svg">
<rect width="62" height="62" rx="13" fill="#3164BD"/>
<path d="M14.6721 36.6883C14.3115 36.3277 14.021 35.8769 13.8306 35.346C13.6403 34.8151 13.5201 34.2541 13.49 33.643C13.44 32.6112 13.5902 31.6796 13.9508 30.8181C14.3014 29.9667 14.8223 29.1853 15.5236 28.4841C16.5453 27.4623 17.8776 26.6109 19.5205 25.9497C21.1633 25.2886 22.9765 24.7977 24.9499 24.4872C26.9433 24.1766 28.9668 24.0164 31.0404 24.0063C33.114 24.0164 35.1375 24.1766 37.1109 24.4872C39.0743 24.8077 40.8775 25.2886 42.4903 25.9397C44.1131 26.6008 45.4454 27.4523 46.4872 28.4941C47.1684 29.1753 47.6993 29.9466 48.0599 30.7881C48.4305 31.6396 48.6109 32.5812 48.5808 33.613C48.5708 34.8852 48.1801 35.8969 47.4388 36.6382C47.1583 36.9187 46.8178 37.1391 46.4471 37.2693C46.0664 37.4096 45.6557 37.4596 45.215 37.3795L39.6153 36.4279C39.1845 36.3577 38.8239 36.2576 38.5134 36.1273C38.2129 36.0071 37.9524 35.8468 37.7621 35.6565C37.5217 35.4161 37.3514 35.1056 37.2612 34.7349C37.161 34.3743 37.1109 33.9436 37.1109 33.4627L37.0809 31.91C37.0809 31.6897 37.0008 31.5093 36.8405 31.3491C36.7603 31.2689 36.6802 31.2088 36.58 31.1487C36.4698 31.0986 36.3797 31.0686 36.2995 31.0285C35.7887 30.8782 35.0474 30.758 34.0857 30.6779C33.114 30.6078 32.1023 30.5577 31.0504 30.5477C29.9786 30.5577 28.9668 30.5877 27.9851 30.6679C27.0235 30.748 26.2922 30.8782 25.7713 31.0385C25.7012 31.0686 25.611 31.0986 25.5109 31.1387C25.4007 31.1888 25.3105 31.2589 25.2204 31.3491C25.0501 31.5194 24.9799 31.7097 24.9799 31.9301L24.9699 33.4427C24.9699 33.9436 24.9198 34.3743 24.8096 34.7249C24.7195 35.0955 24.5592 35.3961 24.3088 35.6465C24.1184 35.8368 23.878 35.9971 23.5675 36.1273C23.257 36.2576 22.8963 36.3577 22.4756 36.4379L16.8058 37.3995C16.365 37.4797 15.9743 37.4496 15.6137 37.3094C15.2631 37.1591 14.9526 36.9688 14.6721 36.6883Z" stroke="white" stroke-width="2" stroke-miterlimit="10"/>
</svg>
