<svg width="26" height="26" viewBox="0 0 26 26" fill="none" xmlns="http://www.w3.org/2000/svg">
<path d="M23.8337 23.833H2.16699C1.72283 23.833 1.35449 23.4647 1.35449 23.0205C1.35449 22.5763 1.72283 22.208 2.16699 22.208H23.8337C24.2778 22.208 24.6462 22.5763 24.6462 23.0205C24.6462 23.4647 24.2778 23.833 23.8337 23.833Z" fill="white"/>
<path d="M10.5625 4.33366V23.8337H15.4375V4.33366C15.4375 3.14199 14.95 2.16699 13.4875 2.16699H12.5125C11.05 2.16699 10.5625 3.14199 10.5625 4.33366Z" fill="white"/>
<path opacity="0.4" d="M3.25 10.8337V23.8337H7.58333V10.8337C7.58333 9.64199 7.15 8.66699 5.85 8.66699H4.98333C3.68333 8.66699 3.25 9.64199 3.25 10.8337Z" fill="white"/>
<path opacity="0.4" d="M18.417 16.2497V23.833H22.7503V16.2497C22.7503 15.058 22.317 14.083 21.017 14.083H20.1503C18.8503 14.083 18.417 15.058 18.417 16.2497Z" fill="white"/>
</svg>
