<svg width="62" height="62" viewBox="0 0 62 62" fill="none" xmlns="http://www.w3.org/2000/svg">
<rect width="62" height="62" rx="13" fill="#3164BD"/>
<path d="M31.7508 43.9283H22.7975C18.3208 43.9283 16.8333 40.9533 16.8333 37.9642V26.0358C16.8333 21.5592 18.3208 20.0717 22.7975 20.0717H31.7508C36.2275 20.0717 37.715 21.5592 37.715 26.0358V37.9642C37.715 42.4408 36.2133 43.9283 31.7508 43.9283Z" stroke="white" stroke-width="2" stroke-linecap="round" stroke-linejoin="round"/>
<path d="M41.6533 39.225L37.715 36.4625V27.5233L41.6533 24.7608C43.58 23.415 45.1667 24.2367 45.1667 26.6025V37.3975C45.1667 39.7633 43.58 40.585 41.6533 39.225Z" stroke="white" stroke-width="2" stroke-linecap="round" stroke-linejoin="round"/>
<path d="M30.2917 30.5833C31.4653 30.5833 32.4167 29.6319 32.4167 28.4583C32.4167 27.2847 31.4653 26.3333 30.2917 26.3333C29.1181 26.3333 28.1667 27.2847 28.1667 28.4583C28.1667 29.6319 29.1181 30.5833 30.2917 30.5833Z" stroke="white" stroke-width="2" stroke-linecap="round" stroke-linejoin="round"/>
</svg>
