<svg width="22" height="22" viewBox="0 0 22 22" fill="none" xmlns="http://www.w3.org/2000/svg">
<path d="M11.4859 18.7179H5.69254C2.79587 18.7179 1.83337 16.7929 1.83337 14.8587V7.14042C1.83337 4.24375 2.79587 3.28125 5.69254 3.28125H11.4859C14.3825 3.28125 15.345 4.24375 15.345 7.14042V14.8587C15.345 17.7554 14.3734 18.7179 11.4859 18.7179Z" stroke="#2C2C2C" stroke-linecap="round" stroke-linejoin="round"/>
<path d="M17.8933 15.6751L15.345 13.8876V8.10345L17.8933 6.31595C19.14 5.44512 20.1666 5.97679 20.1666 7.50762V14.4926C20.1666 16.0235 19.14 16.5551 17.8933 15.6751Z" stroke="#2C2C2C" stroke-linecap="round" stroke-linejoin="round"/>
<path d="M10.5416 10.083C11.301 10.083 11.9166 9.4674 11.9166 8.70801C11.9166 7.94862 11.301 7.33301 10.5416 7.33301C9.78223 7.33301 9.16663 7.94862 9.16663 8.70801C9.16663 9.4674 9.78223 10.083 10.5416 10.083Z" stroke="#2C2C2C" stroke-linecap="round" stroke-linejoin="round"/>
</svg>
